<svg xmlns="http://www.w3.org/2000/svg" shape-rendering="geometricPrecision" text-rendering="geometricPrecision" image-rendering="optimizeQuality" fill-rule="evenodd" clip-rule="evenodd" viewBox="0 0 512 500.21"><path fill-rule="nonzero" d="m146.54 270.1 107.43 16.45c-4.33-47.99-15.61-102.02-47.73-147.53C171.47 89.75 111.71 49.93 8.81 37.66c-5.47-.64-9.38-5.63-8.74-11.1.49-4.2 3.55-7.48 7.42-8.49C40.39 7.08 71.43 1.43 100.53.25c79.53-3.28 144.46 26.45 193.98 70.32 49.15 43.56 83.03 101.18 100.81 154.09 7.32 21.77 11.96 42.85 13.83 61.9l91.14-16.42c5.4-.97 10.59 2.65 11.55 8.05a9.9 9.9 0 0 1-2.13 8.09L335.75 496.59c-3.51 4.24-9.82 4.84-14.06 1.33l-1.16-1.14-183.2-210.28c-3.62-4.15-3.18-10.47.98-14.09 2.34-2.05 5.38-2.79 8.23-2.31zm116.9 38.1-93.13-14.25L327.86 474.8l149.11-180.22-76.6 13.7c-5.5.21-10.14-4.07-10.35-9.57-.82-20.05-5.38-43.34-13.59-67.73-16.81-50.02-48.78-104.41-95.12-145.48-45.99-40.76-106.26-68.36-180-65.33-14.32.59-29.16 2.33-44.52 5.35 82.25 18.34 133.6 56.41 165.78 102.02 37.55 53.19 48.58 116.17 52.29 169.86l-.07 2.4c-.81 5.45-5.91 9.21-11.35 8.4z"/></svg>